<svg xmlns="http://www.w3.org/2000/svg" width="54" height="32" viewBox="0 0 54 32">
    <g fill="none" fill-rule="evenodd">
        <g fill="#FFF">
            <g>
                <g>
                    <g>
                        <g>
                            <path d="M51.46 0l2 2.001v28l-2 1.999H14.584l-1.459-.631L0 17.368v-2.736l13.125-14L14.584 0H51.46zm-2.001 4.001H15.451L4.201 16l11.25 12.001h34.008v-24zM35.763 8.172l2.828 2.829-5 5 5 5-2.828 2.827-5-5-5 5L22.935 21l5-5-5-5 2.828-2.828 5 5 5-5z" transform="translate(-1157 -1152) translate(200 976) translate(10 142) translate(880) translate(67 34)"/>
                        </g>
                    </g>
                </g>
            </g>
        </g>
    </g>
</svg>
